<svg xmlns="http://www.w3.org/2000/svg" viewBox="0 0 512 512">
  <defs>
    <linearGradient id="grad1" x1="0%" y1="0%" x2="100%" y2="100%">
      <stop offset="0%" style="stop-color:#3b82f6;stop-opacity:1" />
      <stop offset="100%" style="stop-color:#1d4ed8;stop-opacity:1" />
    </linearGradient>
    <linearGradient id="grad2" x1="0%" y1="0%" x2="100%" y2="0%">
      <stop offset="0%" style="stop-color:#4b5563;stop-opacity:1" />
      <stop offset="100%" style="stop-color:#1f2937;stop-opacity:1" />
    </linearGradient>
  </defs>
  <path d="M256 0L477.7 128V384L256 512L34.3 384V128L256 0Z" fill="url(#grad2)"/>
  <path d="M256 20L460 138V374L256 492L52 374V138L256 20Z" fill="#111827"/>
  
  <path d="M256 80C200 80 180 120 180 180V350L256 430L332 350V180C332 120 312 80 256 80Z" fill="url(#grad1)"/>
  <path d="M256 80V430" stroke="#1f2937" stroke-width="10"/>
  <path d="M180 180L332 240" stroke="#1f2937" stroke-width="8" opacity="0.3"/>
  <path d="M180 240L332 300" stroke="#1f2937" stroke-width="8" opacity="0.3"/>
  <path d="M180 300L332 360" stroke="#1f2937" stroke-width="8" opacity="0.3"/>
</svg>
